HIERARCHY
ROOT hip
{
  OFFSET 0 0 0
  CHANNELS 6 Xposition Yposition Zposition Zrotation Yrotation Xrotation
  JOINT abdomen
  {
    OFFSET 0 20.6881 -0.73152
    CHANNELS 3 Zrotation Xrotation Yrotation
    JOINT chest
    {
      OFFSET 0 11.7043 -0.48768
      CHANNELS 3 Zrotation Xrotation Yrotation
      JOINT neck
      {
        OFFSET 0 22.1894 -2.19456
        CHANNELS 3 Zrotation Xrotation Yrotation
        JOINT head
        {
          OFFSET -0.24384 7.07133 1.2192
          CHANNELS 3 Zrotation Xrotation Yrotation
          JOINT leftEye
          {
            OFFSET 4.14528 8.04674 8.04672
            CHANNELS 3 Zrotation Xrotation Yrotation
            End Site
            {
              OFFSET 1 0 0
            }
          }
          JOINT rightEye
          {
            OFFSET -3.6576 8.04674 8.04672
            CHANNELS 3 Zrotation Xrotation Yrotation
            End Site
            {
              OFFSET 1 0 0
            }
          }
        }
      }
      JOINT rCollar
      {
        OFFSET -2.68224 19.2634 -4.8768
        CHANNELS 3 Zrotation Xrotation Yrotation
        JOINT rShldr
        {
          OFFSET -8.77824 -1.95073 1.46304
          CHANNELS 3 Zrotation Xrotation Yrotation
          JOINT rForeArm
          {
            OFFSET -28.1742 -1.7115 0.48768
            CHANNELS 3 Zrotation Xrotation Yrotation
            JOINT rHand
            {
              OFFSET -22.5879 0.773209 7.07136
              CHANNELS 3 Zrotation Xrotation Yrotation
              JOINT rThumb1
              {
                OFFSET -1.2192 -0.487915 3.41376
                CHANNELS 3 Zrotation Xrotation Yrotation
                JOINT rThumb2
                {
                  OFFSET -3.37035 -0.52449 3.41376
                  CHANNELS 3 Zrotation Xrotation Yrotation
                  End Site
                  {
                    OFFSET -1.78271 -1.18214 1.43049
                  }
                }
              }
              JOINT rIndex1
              {
                OFFSET -7.75947 0.938293 5.60832
                CHANNELS 3 Zrotation Xrotation Yrotation
                JOINT rIndex2
                {
                  OFFSET -2.54057 -0.884171 1.56538
                  CHANNELS 3 Zrotation Xrotation Yrotation
                  End Site
                  {
                    OFFSET -1.62519 -0.234802 1.16502
                  }
                }
              }
              JOINT rMid1
              {
                OFFSET -8.24714 1.18213 3.41376
                CHANNELS 3 Zrotation Xrotation Yrotation
                JOINT rMid2
                {
                  OFFSET -3.10165 -0.590103 1.0647
                  CHANNELS 3 Zrotation Xrotation Yrotation
                  End Site
                  {
                    OFFSET -2.48547 -0.328903 0.83742
                  }
                }
              }
              JOINT rRing1
              {
                OFFSET -8.82822 0.546677 1.51678
                CHANNELS 3 Zrotation Xrotation Yrotation
                JOINT rRing2
                {
                  OFFSET -2.60934 -0.819778 -0.0198488
                  CHANNELS 3 Zrotation Xrotation Yrotation
                  End Site
                  {
                    OFFSET -2.33842 -0.294052 0.168128
                  }
                }
              }
              JOINT rPinky1
              {
                OFFSET -8.27202 -0.0477905 -0.4584
                CHANNELS 3 Zrotation Xrotation Yrotation
                JOINT rPinky2
                {
                  OFFSET -1.82734 -0.647385 -0.700984
                  CHANNELS 3 Zrotation Xrotation Yrotation
                  End Site
                  {
                    OFFSET -1.69225 -0.51767 -0.607171
                  }
                }
              }
            }
          }
        }
      }
      JOINT lCollar
      {
        OFFSET 2.68224 19.2634 -4.8768
        CHANNELS 3 Zrotation Xrotation Yrotation
        JOINT lShldr
        {
          OFFSET 8.77824 -1.95073 1.46304
          CHANNELS 3 Zrotation Xrotation Yrotation
          JOINT lForeArm
          {
            OFFSET 28.1742 -1.7115 0.48768
            CHANNELS 3 Zrotation Xrotation Yrotation
            JOINT lHand
            {
              OFFSET 22.5879 0.773209 7.07136
              CHANNELS 3 Zrotation Xrotation Yrotation
              JOINT lThumb1
              {
                OFFSET 1.2192 -0.487915 3.41376
                CHANNELS 3 Zrotation Xrotation Yrotation
                JOINT lThumb2
                {
                  OFFSET 3.37035 -0.52449 3.41376
                  CHANNELS 3 Zrotation Xrotation Yrotation
                  End Site
                  {
                    OFFSET 1.78271 -1.18214 1.43049
                  }
                }
              }
              JOINT lIndex1
              {
                OFFSET 7.75947 0.938293 5.60832
                CHANNELS 3 Zrotation Xrotation Yrotation
                JOINT lIndex2
                {
                  OFFSET 2.54057 -0.884171 1.56538
                  CHANNELS 3 Zrotation Xrotation Yrotation
                  End Site
                  {
                    OFFSET 1.62519 -0.234802 1.16502
                  }
                }
              }
              JOINT lMid1
              {
                OFFSET 8.24714 1.18213 3.41376
                CHANNELS 3 Zrotation Xrotation Yrotation
                JOINT lMid2
                {
                  OFFSET 3.10165 -0.590103 1.0647
                  CHANNELS 3 Zrotation Xrotation Yrotation
                  End Site
                  {
                    OFFSET 2.48547 -0.328903 0.83742
                  }
                }
              }
              JOINT lRing1
              {
                OFFSET 8.82822 0.546677 1.51678
                CHANNELS 3 Zrotation Xrotation Yrotation
                JOINT lRing2
                {
                  OFFSET 2.60934 -0.819778 -0.0198488
                  CHANNELS 3 Zrotation Xrotation Yrotation
                  End Site
                  {
                    OFFSET 2.33842 -0.294052 0.168128
                  }
                }
              }
              JOINT lPinky1
              {
                OFFSET 8.27202 -0.0477905 -0.4584
                CHANNELS 3 Zrotation Xrotation Yrotation
                JOINT lPinky2
                {
                  OFFSET 1.82734 -0.647385 -0.700984
                  CHANNELS 3 Zrotation Xrotation Yrotation
                  End Site
                  {
                    OFFSET 1.69225 -0.51767 -0.607171
                  }
                }
              }
            }
          }
        }
      }
    }
  }
  JOINT rButtock
  {
    OFFSET -8.77824 4.35084 1.2192
    CHANNELS 3 Zrotation Xrotation Yrotation
    JOINT rThigh
    {
      OFFSET 0 -1.70687 -2.19456
      CHANNELS 3 Zrotation Xrotation Yrotation
      JOINT rShin
      {
        OFFSET 0 -36.8199 0.73152
        CHANNELS 3 Zrotation Xrotation Yrotation
        JOINT rFoot
        {
          OFFSET 0.73152 -45.1104 -5.12064
          CHANNELS 3 Zrotation Xrotation Yrotation
          End Site
          {
            OFFSET -1.1221 -3.69964 12.103
          }
        }
      }
    }
  }
  JOINT lButtock
  {
    OFFSET 8.77824 4.35084 1.2192
    CHANNELS 3 Zrotation Xrotation Yrotation
    JOINT lThigh
    {
      OFFSET 0 -1.70687 -2.19456
      CHANNELS 3 Zrotation Xrotation Yrotation
      JOINT lShin
      {
        OFFSET 0 -36.8199 0.73152
        CHANNELS 3 Zrotation Xrotation Yrotation
        JOINT lFoot
        {
          OFFSET -0.73152 -45.1104 -5.12064
          CHANNELS 3 Zrotation Xrotation Yrotation
          End Site
          {
            OFFSET 1.1221 -3.69964 12.103
          }
        }
      }
    }
  }
}
MOTION
Frames: 5
Frame Time:	0.06666666
65.5604 83.1301 -138.384 0.0 0.0 0.0 0.0256067 -6.19297e-06 0.000728849 0.00706488 8.62965e-06 0.00122384 -2.37171e-16 0.0 2.32951e-18 -7.11276e-16 3.18055e-15 6.21202e-18 -0.0 0.0 0.0 -0.0 0.0 0.0 -5.10277e-17 -7.76503e-19 1.49089e-16 -4.18923e-16 -4.41053e-16 7.95139e-16 -4.08006e-14 9.54166e-15 -1.59028e-14 -4.98043e-13 -2.6165e-14 9.54166e-15 -1.1716e-12 -3.0898e-14 9.54166e-15 -2.02641e-12 -5.40694e-14 9.54166e-15 -1.16528e-12 -3.02153e-14 0.0 7.73091 5.47488 0.417314 -1.17159e-12 -3.08116e-14 9.54166e-15 2.90554 0.965183 0.102902 -1.16329e-12 -3.06128e-14 6.36111e-15 10.2786 0.731801 0.0259123 -1.17661e-12 -3.02153e-14 1.59028e-14 2.22167 -0.733487 -0.20892 -1.47765e-16 -5.82377e-19 -1.49089e-16 -4.34822e-15 -1.49089e-16 -7.95139e-16 -4.55714e-14 -1.13307e-14 3.18055e-15 -4.95129e-13 1.83876e-14 6.36111e-15 -1.17195e-12 1.58173e-14 1.27222e-14 -2.01846e-12 2.8625e-14 2.46493e-14 -1.1776e-12 1.74931e-14 2.22639e-14 -7.73091 5.47488 -0.417314 -1.17208e-12 1.54058e-14 3.18055e-15 -2.90554 0.965183 -0.102902 -1.18223e-12 1.59028e-14 1.11319e-14 -10.2786 0.731801 -0.0259123 -1.17025e-12 1.74931e-14 0.0 -2.22167 -0.733487 0.20892 -2.03217e-16 0.0 -3.88251e-19 0.512296 -3.13364 -0.0420884 -0.00562799 0.123101 -0.0495522 -0.492795 3.00963 0.117359 2.03217e-16 0.0 3.88251e-19 -0.473329 -3.03453 0.0397105 0.00592201 -0.0564357 0.0521752 0.492509 3.09005 -0.118956
65.6482 79.3741 -136.934 4.1474 -0.7063 2.5819 -0.692095 7.54686 -0.477732 1.74153 -3.92013 0.0937357 -6.80837 -0.0241832 -4.04852 8.0421 -4.87574 -5.50366 -0.0 0.0 0.0 -0.0 0.0 0.0 2.29848e-15 -5.06857e-14 1.544e-14 47.2238 20.7473 -8.58033 -32.6773 -36.662 37.0364 -0.0282872 -10.0878 -1.41623 -7.8901e-11 1.46202e-09 -4.91384e-10 -1.30256e-10 2.48477e-09 -8.49162e-10 -7.88978e-11 1.46202e-09 -4.91393e-10 7.73091 5.47488 0.417314 -7.89007e-11 1.46202e-09 -4.91388e-10 2.90554 0.965183 0.102902 -7.88914e-11 1.46202e-09 -4.91387e-10 10.2786 0.731801 0.0259123 -7.8909e-11 1.46202e-09 -4.91375e-10 2.22167 -0.733487 -0.20892 2.24892e-15 -5.06946e-14 1.50548e-14 -47.8757 19.5406 5.50615 30.1961 -32.6273 -35.9323 0.0698551 -15.7643 2.20994 1.51856e-10 3.93483e-10 4.13789e-10 2.52429e-10 6.26598e-10 7.17027e-10 1.5185e-10 3.93484e-10 4.13801e-10 -7.73091 5.47488 -0.417314 1.51856e-10 3.93485e-10 4.13785e-10 -2.90554 0.965183 -0.102902 1.51847e-10 3.93485e-10 4.1379e-10 -10.2786 0.731801 -0.0259123 1.51861e-10 3.93485e-10 4.13779e-10 -2.22167 -0.733487 0.20892 -2.03217e-16 0.0 -3.88251e-19 11.1956 -13.9619 -1.21344 -0.074243 24.3808 0.253271 -1.93641 -8.56069 -6.81162 2.03217e-16 0.0 3.88251e-19 8.22337 -20.1502 -3.25252 0.359297 45.1747 -0.731608 0.287743 7.58881 -2.55819
65.4009 78.7091 -132.268 4.9522 0.0274 2.7396 -1.20991 13.1924 -0.500262 2.8749 -6.97774 0.246621 -12.238 -0.0270766 -7.3322 13.7377 -8.4455 -10.1026 -0.0 0.0 0.0 -0.0 0.0 0.0 3.15513e-16 -7.4736e-14 2.23136e-14 88.8474 36.1449 -17.3864 -28.3617 -37.6376 79.7838 -0.401138 -17.7171 -2.57336 -9.67992e-11 9.9714e-10 -6.13465e-10 -1.59554e-10 1.67417e-09 -1.05963e-09 -9.67982e-11 9.97144e-10 -6.13475e-10 7.73091 5.47488 0.417314 -9.67988e-11 9.9714e-10 -6.13472e-10 2.90554 0.965183 0.102902 -9.67885e-11 9.9714e-10 -6.13469e-10 10.2786 0.731801 0.0259123 -9.68089e-11 9.97148e-10 -6.13456e-10 2.22167 -0.733487 -0.20892 2.80937e-16 -7.47494e-14 2.18663e-14 -88.3498 34.6712 11.6393 28.4039 -34.3713 -74.3087 1.09053 -28.2524 4.33127 1.6517e-10 3.64305e-10 5.20259e-10 2.72958e-10 5.63136e-10 9.00464e-10 1.65164e-10 3.64304e-10 5.20272e-10 -7.73091 5.47488 -0.417314 1.65171e-10 3.64308e-10 5.20259e-10 -2.90554 0.965183 -0.102902 1.65161e-10 3.64308e-10 5.20261e-10 -10.2786 0.731801 -0.0259123 1.65178e-10 3.64306e-10 5.2025e-10 -2.22167 -0.733487 0.20892 -2.03217e-16 0.0 -3.88251e-19 19.3292 -21.4967 -1.84166 -0.35361 42.9606 0.647788 -5.119 -17.3635 -12.6972 2.03217e-16 0.0 3.88251e-19 13.2491 -34.1153 -6.38575 5.09123 79.9398 -5.47199 0.342663 10.2631 -4.00426
64.8505 78.3705 -127.746 5.118 -0.1997 3.0336 -1.44269 13.1595 0.880686 2.20396 -7.4394 0.573 -13.5631 -0.011527 -8.33796 14.9329 -8.41341 -11.7092 -0.0 0.0 0.0 -0.0 0.0 0.0 -2.45469e-14 2.20156e-14 -1.09083e-14 94.1054 39.0199 -17.6725 -28.1931 -36.0476 85.863 -0.435701 -17.9533 -2.61485 1.40239e-10 -1.34007e-08 1.06809e-09 2.30499e-10 -2.30945e-08 1.84939e-09 1.40241e-10 -1.34007e-08 1.06808e-09 7.73091 5.47488 0.417314 1.40239e-10 -1.34007e-08 1.06809e-09 2.90554 0.965183 0.102902 1.40249e-10 -1.34007e-08 1.06809e-09 10.2786 0.731801 0.0259123 1.40231e-10 -1.34007e-08 1.06809e-09 2.22167 -0.733487 -0.20892 -2.46788e-14 2.20147e-14 -1.13525e-14 -95.1382 37.9465 14.4886 28.3184 -32.6823 -79.2503 1.44045 -31.1784 4.90677 -5.72547e-10 -1.87119e-09 -8.68222e-10 -9.67172e-10 -3.1136e-09 -1.51428e-09 -5.72554e-10 -1.87119e-09 -8.68214e-10 -7.73091 5.47488 -0.417314 -5.72547e-10 -1.87119e-09 -8.68225e-10 -2.90554 0.965183 -0.102902 -5.72556e-10 -1.87119e-09 -8.68223e-10 -10.2786 0.731801 -0.0259123 -5.72538e-10 -1.87119e-09 -8.68235e-10 -2.22167 -0.733487 0.20892 -2.03217e-16 0.0 -3.88251e-19 21.0623 -19.1507 -0.413912 -0.385217 44.6004 0.863177 -6.11497 -19.3852 -13.9426 2.03217e-16 0.0 3.88251e-19 13.4646 -39.2722 -6.31171 8.86684 83.7358 -9.27678 0.26166 7.28179 -2.32684
64.1203 78.6819 -122.916 5.4909 -1.2586 3.4808 -1.5197 11.1621 2.76434 0.855637 -7.05474 0.967574 -13.4213 0.113624 -8.54572 14.6174 -7.22667 -12.2797 -0.0 0.0 0.0 -0.0 0.0 0.0 -3.39777e-14 6.36049e-14 -2.28602e-14 86.203 38.0173 -14.4164 -28.0971 -39.8676 83.6848 -0.319355 -15.8735 -2.29037 2.86223e-10 -1.34211e-08 1.72755e-09 4.74378e-10 -2.3015e-08 2.99036e-09 2.86226e-10 -1.34211e-08 1.72754e-09 7.73091 5.47488 0.417314 2.86222e-10 -1.34211e-08 1.72755e-09 2.90554 0.965183 0.102902 2.86233e-10 -1.34211e-08 1.72755e-09 10.2786 0.731801 0.0259123 2.86219e-10 -1.34211e-08 1.72755e-09 2.22167 -0.733487 -0.20892 -3.42077e-14 6.36156e-14 -2.32578e-14 -89.9051 37.2483 15.7773 28.4311 -35.3026 -75.8465 1.31593 -30.7126 4.78914 -7.86203e-10 -2.65258e-09 -1.41795e-09 -1.32341e-09 -4.394e-09 -2.46762e-09 -7.86211e-10 -2.65258e-09 -1.41794e-09 -7.73091 5.47488 -0.417314 -7.86203e-10 -2.65257e-09 -1.41795e-09 -2.90554 0.965183 -0.102902 -7.86212e-10 -2.65257e-09 -1.41795e-09 -10.2786 0.731801 -0.0259123 -7.86196e-10 -2.65258e-09 -1.41796e-09 -2.22167 -0.733487 0.20892 -2.03217e-16 0.0 -3.88251e-19 20.1714 -13.5616 1.45258 -0.244292 40.3862 0.922695 -5.64275 -18.2595 -13.1842 2.03217e-16 0.0 3.88251e-19 12.3283 -41.0672 -4.91584 3.51668 76.588 -4.00174 0.471167 2.96696 0.340332
